<?xml version="1.0" standalone="no"?>
<!DOCTYPE svg PUBLIC "-//W3C//DTD SVG 1.1//EN" "http://www.w3.org/Graphics/SVG/1.1/DTD/svg11.dtd" >
<svg>
<metadata>
Created by FontForge 20090622 at Sun Nov  1 16:07:08 2015
 By deploy user
2004 T.26 Digital Type Foundry www.t26.com PSID#5134571 designer: Neil Summerour / Positype
</metadata>
<defs>
<font id="AauxProLightOSF" horiz-adv-x="489" >
  <font-face 
    font-family="Aaux ProLight OSF"
    font-weight="400"
    font-stretch="normal"
    units-per-em="1000"
    panose-1="0 0 4 0 0 0 0 0 0 0"
    ascent="800"
    descent="-200"
    x-height="478"
    cap-height="698"
    bbox="-105 -220.01 951 978"
    underline-thickness="20"
    underline-position="-125"
    unicode-range="U+0020-U+F002"
  />
<missing-glyph horiz-adv-x="500" 
d="M63 0v775h375v-775h-375zM125 63h250v650h-250v-650z" />
    <glyph glyph-name=".notdef" horiz-adv-x="500" 
d="M63 0v775h375v-775h-375zM125 63h250v650h-250v-650z" />
    <glyph glyph-name=".null" horiz-adv-x="0" 
 />
    <glyph glyph-name="nonmarkingreturn" horiz-adv-x="270" 
 />
    <glyph glyph-name="space" unicode=" " horiz-adv-x="270" 
 />
    <glyph glyph-name="exclam" unicode="!" horiz-adv-x="280" 
d="M167 359l-10 -187h-33l-11 187v339h54v-339zM180 31q0 -16 -12 -27.5t-28 -11.5q-17 0 -28.5 11.5t-11.5 27.5q0 17 11.5 28.5t28.5 11.5q16 0 28 -11.5t12 -28.5z" />
    <glyph glyph-name="quotedbl" unicode="&#x22;" horiz-adv-x="340" 
d="M270 547h-66v151q0 14 9.5 23.5t23.5 9.5q13 0 23 -9.5t10 -23.5v-151zM136 547h-66v151q0 14 10 23.5t23 9.5q14 0 23.5 -9.5t9.5 -23.5v-151z" />
    <glyph glyph-name="numbersign" unicode="#" horiz-adv-x="641" 
d="M599 444l-11 -49h-113l-32 -152h113l-11 -49h-113l-40 -192h-50l41 192h-152l-40 -192h-50l41 192h-113l10 49h113l33 152h-113l10 49h113l41 192h49l-41 -192h152l41 192h49l-40 -192h113zM426 395h-152l-32 -152h152z" />
    <glyph glyph-name="dollar" unicode="$" horiz-adv-x="471" 
d="M428 158q0 -67 -49 -109q-44 -38 -114 -46v-57h-46v58q-138 13 -176 143l47 12q29 -100 129 -110v216q-160 32 -160 140q0 62 50 102q45 36 110 39v50h46v-51q101 -6 146 -101l-41 -18q-40 69 -105 73v-196q163 -41 163 -145zM219 312v187q-48 -1 -78 -23
q-34 -25 -34 -71q0 -67 112 -93zM381 158q0 61 -116 97v-206q116 20 116 109z" />
    <glyph glyph-name="percent" unicode="%" horiz-adv-x="726" 
d="M670 170q0 -75 -27 -122q-34 -57 -104 -57q-71 0 -104 57q-28 47 -28 122q0 74 28 121q33 58 104 58q70 0 104 -58q27 -47 27 -121zM527 635l-275 -635h-48l276 635h47zM324 465q0 -75 -27 -121q-34 -58 -104 -58t-104 58q-27 46 -27 121t27 121q34 58 104 58t104 -58
q27 -46 27 -121zM629 170q0 138 -90 138q-91 0 -91 -138t91 -138q90 0 90 138zM283 465q0 138 -90 138t-90 -138t90 -138t90 138z" />
    <glyph glyph-name="ampersand" unicode="&#x26;" horiz-adv-x="646" 
d="M606 405q0 -68 -59 -88q1 -50 -10 -98q-13 -64 -45 -113q39 -35 76 -63l-25 -43q-40 30 -82 68q-77 -80 -193 -80q-84 0 -147 45q-71 51 -71 132q0 71 36 126q30 46 95 93q-66 99 -66 160q0 60 38.5 99t99.5 39t103 -32q46 -35 46 -94q0 -31 -21 -85t-21 -71
q0 -42 80 -42h57q31 0 46.5 10t15.5 37h47zM497 311h-57q-56 0 -81 12q-37 17 -37 64q0 26 15.5 84.5t15.5 84.5q0 38 -32 59q-28 18 -68 18q-41 0 -64.5 -24.5t-23.5 -64.5q0 -62 103 -197q81 -106 186 -207q43 70 43 171zM424 102q-125 118 -215 242q-109 -81 -109 -179
q0 -60 56 -96q49 -32 111 -32q95 0 157 65z" />
    <glyph glyph-name="quotesingle" unicode="'" horiz-adv-x="206" 
d="M136 547h-66v151q0 14 10 23.5t23 9.5q14 0 23.5 -9.5t9.5 -23.5v-151z" />
    <glyph glyph-name="parenleft" unicode="(" horiz-adv-x="316" 
d="M266 0h-63q-66 65 -105 161q-38 93 -38 188t38.5 190t104.5 159h63q-70 -55 -114 -157q-42 -98 -42 -192t42 -191q44 -103 114 -158z" />
    <glyph glyph-name="parenright" unicode=")" horiz-adv-x="316" 
d="M266 349q0 -95 -38 -188q-38 -96 -105 -161h-63q70 55 114 158q42 97 42 191t-42 192q-44 102 -114 157h63q66 -64 104.5 -159t38.5 -190z" />
    <glyph glyph-name="asterisk" unicode="*" horiz-adv-x="423" 
d="M378 559l-132 -39l84 -109l-41 -29l-78 113l-77 -113l-41 29l84 109l-132 39l16 48l129 -46l-4 137h51l-4 -137l129 46z" />
    <glyph glyph-name="plus" unicode="+" horiz-adv-x="491" 
d="M446 248h-175v-175h-51v175h-175v51h175v175h51v-175h175v-51z" />
    <glyph glyph-name="comma" unicode="," horiz-adv-x="210" 
d="M145 -12l-76 -123h-4v167q0 16 11.5 27.5t28.5 11.5q16 0 28 -11.5t12 -27.5v-44z" />
    <glyph glyph-name="hyphen" unicode="-" horiz-adv-x="387" 
d="M322 248h-257v51h257v-51z" />
    <glyph glyph-name="hyphen" unicode="&#x2010;" horiz-adv-x="387" 
d="M322 248h-257v51h257v-51z" />
    <glyph glyph-name="period" unicode="." horiz-adv-x="217" 
d="M152 35q0 -18 -13 -30.5t-31 -12.5t-30.5 12.5t-12.5 30.5t12.5 30.5t30.5 12.5t31 -12.5t13 -30.5z" />
    <glyph glyph-name="slash" unicode="/" horiz-adv-x="403" 
d="M383 774l-309 -850h-54l309 850h54z" />
    <glyph glyph-name="zero" unicode="0" horiz-adv-x="587" 
d="M522 242q0 -114 -55 -178q-59 -69 -173 -69t-174 69q-55 64 -55 178t55 178q60 68 174 68t173 -68q55 -64 55 -178zM473 242q0 198 -179 198q-180 0 -180 -198q0 -199 180 -199q179 0 179 199z" />
    <glyph glyph-name="one" unicode="1" horiz-adv-x="382" 
d="M282 0h-49v408l-138 -82l-25 42l187 110h25v-478z" />
    <glyph glyph-name="two" unicode="2" horiz-adv-x="553" 
d="M488 0h-413v49q53 115 189 172l119 48q52 27 52 73q0 98 -148 98q-52 0 -95 -24q-46 -25 -65 -70l-43 20q24 57 83 91q55 31 120 31q198 0 198 -147q0 -67 -57 -104q-19 -12 -129 -55q-138 -53 -170 -133h359v-49z" />
    <glyph glyph-name="three" unicode="3" horiz-adv-x="492" 
d="M447 -14q0 -90 -59 -144t-151 -54q-148 0 -195 126l43 25q16 -50 59 -77q40 -26 93 -26q69 0 114.5 41.5t45.5 108.5q0 75 -50 113q-44 34 -122 34v42q156 -1 156 131q0 59 -44.5 98t-104.5 39q-48 0 -87.5 -26t-55.5 -70l-42 25q25 55 75 86t112 31q84 0 140 -50.5
t56 -132.5q0 -105 -94 -150q111 -41 111 -170z" />
    <glyph glyph-name="four" unicode="4" horiz-adv-x="532" 
d="M487 4h-68v-183h-49v183h-330v50l294 466h56l-292 -466h272v297l49 -10v-287h68v-50z" />
    <glyph glyph-name="five" unicode="5" horiz-adv-x="511" 
d="M466 19q0 -105 -58 -169q-60 -67 -165 -67q-65 0 -117 32t-74 91l43 26q16 -49 56.5 -75t92.5 -26q83 0 129 54q44 50 44 134q0 83 -42 133q-46 53 -128 53q-77 0 -133 -53h-46v326h353v-47h-307v-226q57 47 132 47q106 0 163 -63.5t57 -169.5z" />
    <glyph glyph-name="six" unicode="6" horiz-adv-x="532" 
d="M487 208q0 -91 -62 -152.5t-153 -61.5q-101 0 -163 71q-58 68 -58 171q0 289 246 467l32 -31q-186 -142 -221 -330q70 91 165 91q97 0 157 -67q57 -64 57 -158zM439 208q0 72 -44 123q-47 54 -122 54q-70 0 -121 -52t-51 -121t51.5 -120t120.5 -51q70 0 118 48t48 119z
" />
    <glyph glyph-name="seven" unicode="7" horiz-adv-x="483" 
d="M446 429q-240 -259 -230 -649l-56 15q1 213 73 385q51 121 153 249h-302v-57h-49v106h411v-49z" />
    <glyph glyph-name="eight" unicode="8" horiz-adv-x="520" 
d="M475 193q0 -90 -62 -145t-153 -55q-92 0 -152 54q-63 56 -63 146q0 132 111 173q-92 40 -92 155q0 82 57 134q56 49 139 49t138 -49q58 -52 58 -134q0 -49 -22 -90q-24 -45 -70 -65q111 -41 111 -173zM406 521q0 59 -43.5 97.5t-102.5 38.5q-60 0 -103 -38.5t-43 -97.5
q0 -64 42 -100q39 -33 104 -33t105.5 34t40.5 99zM424 193q0 72 -45.5 110t-118.5 38q-74 0 -118 -36q-47 -40 -47 -112q0 -68 48 -110t117 -42q68 0 116 42t48 110z" />
    <glyph glyph-name="nine" unicode="9" horiz-adv-x="525" 
d="M477 247q0 -285 -250 -466l-30 30q188 145 222 328q-61 -79 -157 -79q-90 0 -149.5 61.5t-59.5 151.5q0 88 61 151t149 63q99 0 158 -72q56 -67 56 -168zM426 273q0 68 -48 117.5t-116 49.5q-67 0 -114 -49.5t-47 -117.5q0 -67 47 -116.5t114 -49.5q69 0 116.5 48
t47.5 118z" />
    <glyph glyph-name="colon" unicode=":" horiz-adv-x="217" 
d="M152 338q0 -18 -13 -30.5t-31 -12.5q-17 0 -30 12.5t-13 30.5t13 31t30 13q18 0 31 -13t13 -31zM152 35q0 -18 -13 -30.5t-31 -12.5q-17 0 -30 12.5t-13 30.5t13 30.5t30 12.5q18 0 31 -12.5t13 -30.5z" />
    <glyph glyph-name="semicolon" unicode=";" horiz-adv-x="227" 
d="M157 338q0 -18 -13 -30.5t-31 -12.5t-30.5 12.5t-12.5 30.5t12.5 31t30.5 13t31 -13t13 -31zM153 -12l-75 -123h-5v167q0 16 12 27.5t28 11.5q17 0 28.5 -11.5t11.5 -27.5v-44z" />
    <glyph glyph-name="less" unicode="&#x3c;" horiz-adv-x="447" 
d="M397 0h-62l-285 349l285 349h62l-285 -349z" />
    <glyph glyph-name="equal" unicode="=" horiz-adv-x="511" 
d="M456 325h-401v49h401v-49zM456 126h-401v50h401v-50z" />
    <glyph glyph-name="greater" unicode="&#x3e;" horiz-adv-x="447" 
d="M397 349l-285 -349h-62l285 349l-285 349h62z" />
    <glyph glyph-name="question" unicode="?" horiz-adv-x="468" 
d="M428 523q0 -69 -44 -107l-84 -55q-46 -37 -49 -104l-4 -83h-33q-7 57 -7 83q0 81 44 125l82 56q44 32 44 85q0 62 -41.5 97.5t-104.5 35.5q-61 0 -105 -34q-47 -36 -47 -95h-48q0 80 61 131q57 48 139 48q83 0 140 -50.5t57 -132.5zM271 31q0 -15 -12 -27t-27 -12
q-16 0 -28 12t-12 27q0 16 12 28t28 12q15 0 27 -12t12 -28z" />
    <glyph glyph-name="at" unicode="@" horiz-adv-x="662" 
d="M593 378q0 -25 -9 -66q-9 -45 -10 -64l-15 -250l-46 3l6 101q-69 -114 -164 -114q-64 0 -100 55q-31 47 -31 114q0 95 58 184q66 101 156 101q73 0 109 -72q0 85 -32 146q-41 75 -121 75q-115 0 -202 -136q-77 -121 -77 -243q0 -55 24 -110q26 -58 65 -83l-24 -39
q-54 35 -84 102q-27 61 -27 130q0 143 90 276q100 149 236 149q97 0 151 -85q47 -72 47 -174zM521 272q0 47 -18 81q-22 43 -65 43q-70 0 -122 -87q-45 -76 -45 -151q0 -47 18 -81q22 -43 65 -43q70 0 122 87q45 77 45 151z" />
    <glyph glyph-name="A" unicode="A" horiz-adv-x="617" 
d="M607 0h-54l-82 213h-325l-82 -213h-54l267 698h63zM453 261l-145 379l-144 -379h289z" />
    <glyph glyph-name="B" unicode="B" horiz-adv-x="606" 
d="M561 191q0 -191 -234 -191h-252v698h234q225 0 225 -183q0 -49 -22 -91q-24 -45 -66 -63q54 -16 86 -65q29 -47 29 -105zM484 515q0 134 -175 134h-183v-270h190q168 0 168 136zM511 191q0 143 -184 143h-201v-284h201q184 0 184 141z" />
    <glyph glyph-name="C" unicode="C" horiz-adv-x="573" 
d="M528 101q-46 -57 -91 -82q-51 -28 -119 -28q-144 0 -215 112q-58 93 -58 246t59 246q70 112 214 112q68 0 119 -28q45 -25 91 -82l-38 -32q-40 48 -75 68q-40 23 -97 23q-222 0 -222 -307t222 -307q57 0 97 23q35 21 75 68z" />
    <glyph glyph-name="D" unicode="D" horiz-adv-x="624" 
d="M564 349q0 -108 -8 -161q-17 -113 -93 -155q-60 -33 -184 -33h-204v698h203q125 0 185 -32q76 -42 93 -155q8 -54 8 -162zM513 349q0 125 -8 167q-13 70 -60 99q-52 33 -167 33h-152v-597h152q115 0 167 32q47 30 60 99q8 42 8 167z" />
    <glyph glyph-name="E" unicode="E" horiz-adv-x="559" 
d="M509 0h-434v698h434v-50h-383v-262h335v-48h-335v-288h383v-50z" />
    <glyph glyph-name="F" unicode="F" horiz-adv-x="539" 
d="M499 648h-373v-262h335v-47h-335v-339h-51v698h424v-50z" />
    <glyph glyph-name="G" unicode="G" horiz-adv-x="618" 
d="M553 364l-1 -364h-50v105q-50 -114 -186 -114q-142 0 -212 113q-59 94 -59 245q0 149 62 245q73 113 214 113q68 0 119 -28q45 -25 91 -82l-38 -32q-40 48 -75 68q-41 23 -97 23q-122 0 -179 -97q-46 -79 -46 -210q0 -129 45 -208q56 -99 175 -99q102 0 149 90
q37 69 37 181h-180v51h231z" />
    <glyph glyph-name="H" unicode="H" horiz-adv-x="644" 
d="M569 0h-51v338h-392v-338h-51v698h51v-312h392v312h51v-698z" />
    <glyph glyph-name="I" unicode="I" horiz-adv-x="221" 
d="M136 0h-51v698h51v-698z" />
    <glyph glyph-name="J" unicode="J" horiz-adv-x="521" 
d="M451 210q0 -217 -216 -217q-76 0 -129 35q-57 38 -76 109l49 13q28 -106 156 -106q87 0 126.5 40t39.5 126v488h50v-488z" />
    <glyph glyph-name="K" unicode="K" horiz-adv-x="549" 
d="M529 0h-72l-331 349v-349h-51v698h51v-348l311 348h66l-310 -347z" />
    <glyph glyph-name="L" unicode="L" horiz-adv-x="493" 
d="M468 0h-393v698h51v-651h342v-47z" />
    <glyph glyph-name="M" unicode="M" horiz-adv-x="718" 
d="M643 0h-51v562l-208 -562h-51l-207 560v-560h-51v698h51l233 -628l233 628h51v-698z" />
    <glyph glyph-name="N" unicode="N" horiz-adv-x="620" 
d="M545 0h-54l-365 607v-607h-51v698h54l366 -607v607h50v-698z" />
    <glyph glyph-name="O" unicode="O" horiz-adv-x="636" 
d="M591 349q0 -153 -58 -245q-70 -113 -215 -113t-215 113q-58 92 -58 245t58 245q70 113 215 113t215 -113q58 -92 58 -245zM541 349q0 307 -223 307q-222 0 -222 -307t222 -307q223 0 223 307z" />
    <glyph glyph-name="P" unicode="P" horiz-adv-x="589" 
d="M554 507q0 -191 -227 -191h-201v-316h-51v698h252q227 0 227 -191zM504 507q0 80 -52 113q-41 27 -125 27h-201v-282h201q177 0 177 142z" />
    <glyph glyph-name="Q" unicode="Q" horiz-adv-x="631" 
d="M591 349q0 -176 -72 -265l69 -84h-66l-39 48q-69 -57 -165 -57q-145 0 -215 113q-58 92 -58 245t58 245q70 113 215 113t215 -113q58 -92 58 -245zM541 349q0 307 -223 307q-222 0 -222 -307t222 -307q78 0 132 45q-56 64 -132 71v48q101 -8 167 -83q56 75 56 226z" />
    <glyph glyph-name="R" unicode="R" horiz-adv-x="593" 
d="M543 0h-59l-146 252q-41 70 -91 70h-121v-322h-51v698h234q100 0 156 -43q62 -48 62 -145q0 -86 -49 -133.5t-136 -53.5q31 -31 47 -57zM477 510q0 137 -168 137h-183v-276h183q168 0 168 139z" />
    <glyph glyph-name="S" unicode="S" horiz-adv-x="595" 
d="M550 193q0 -95 -75 -151q-67 -51 -165 -51q-233 0 -265 184l50 8q25 -143 215 -143q76 0 129 37q60 42 60 116q0 91 -111 131l-206 58q-111 45 -111 149q0 86 69 133q59 41 148 41q173 0 238 -139l-46 -22q-51 110 -192 110q-67 0 -112 -26q-54 -33 -54 -97
q0 -78 111 -114l206 -60q111 -50 111 -164z" />
    <glyph glyph-name="T" unicode="T" horiz-adv-x="534" 
d="M514 648h-222v-648h-50v648h-222v50h494v-50z" />
    <glyph glyph-name="U" unicode="U" horiz-adv-x="634" 
d="M564 301q0 -310 -247 -310t-247 310v397h51v-397q0 -120 37 -181q47 -78 159 -78t159 78q37 62 37 181v397h51v-397z" />
    <glyph glyph-name="V" unicode="V" horiz-adv-x="552" 
d="M537 698l-234 -698h-54l-234 698h53l208 -615l208 615h53z" />
    <glyph glyph-name="W" unicode="W" horiz-adv-x="765" 
d="M735 698l-164 -698h-51l-138 587l-137 -587h-52l-163 698h52l137 -587l137 587h52l137 -587l138 587h52z" />
    <glyph glyph-name="X" unicode="X" horiz-adv-x="567" 
d="M542 0h-60l-198 313l-199 -313h-60l229 360l-215 338h60l185 -291l184 291h60l-214 -338z" />
    <glyph glyph-name="Y" unicode="Y" horiz-adv-x="555" 
d="M530 698l-227 -468v-230h-51v232l-227 466h56l197 -403l196 403h56z" />
    <glyph glyph-name="Z" unicode="Z" horiz-adv-x="571" 
d="M516 0h-471v47l410 601h-374v50h435v-50l-407 -597h407v-51z" />
    <glyph glyph-name="bracketleft" unicode="[" horiz-adv-x="269" 
d="M219 -61h-149v820h149v-41h-98v-738h98v-41z" />
    <glyph glyph-name="backslash" unicode="\" horiz-adv-x="403" 
d="M383 -76h-54l-309 850h54z" />
    <glyph glyph-name="bracketright" unicode="]" horiz-adv-x="269" 
d="M219 -61h-149v41h99v738h-99v41h149v-820z" />
    <glyph glyph-name="asciicircum" unicode="^" horiz-adv-x="513" 
d="M458 403l-42 -25l-159 272l-160 -272l-42 25l173 295h57z" />
    <glyph glyph-name="underscore" unicode="_" horiz-adv-x="529" 
d="M504 -49h-479v49h479v-49z" />
    <glyph glyph-name="grave" unicode="`" horiz-adv-x="302" 
d="M227 545h-57l-95 146h67z" />
    <glyph glyph-name="a" unicode="a" horiz-adv-x="466" 
d="M421 5l-44 -13l-19 48q-64 -50 -144 -50q-73 0 -119 36q-50 39 -50 109q0 66 49 105q45 35 112 35h70q58 0 80 24v46q0 40 -37 67q-34 24 -75 24q-106 0 -130 -79l-46 14q41 113 178 113q61 0 108 -37q50 -40 50 -99v-297zM356 101v143q-28 -15 -68 -15h-82
q-47 0 -78 -23q-34 -25 -34 -71q0 -47 37 -74q33 -23 83 -23q81 0 142 63z" />
    <glyph glyph-name="b" unicode="b" horiz-adv-x="488" 
d="M443 237q0 -246 -190 -246q-96 0 -135 56v-47h-48v698h48v-272q46 58 135 58q190 0 190 -247zM395 237q0 91 -25 137q-34 62 -117 62q-57 0 -96 -34t-39 -90v-150q0 -55 39.5 -89t95.5 -34q83 0 117 62q25 46 25 136z" />
    <glyph glyph-name="c" unicode="c" horiz-adv-x="462" 
d="M417 66q-37 -41 -72 -57.5t-87 -16.5q-105 0 -162 73q-51 66 -51 174t51 175q57 73 162 73q52 0 87 -17t72 -57l-35 -32q-54 61 -124 61q-86 0 -127 -62q-35 -52 -35 -141t35 -141q41 -61 127 -61q70 0 124 61z" />
    <glyph glyph-name="d" unicode="d" horiz-adv-x="492" 
d="M432 7l-46 -14l-15 51q-51 -53 -134 -53q-192 0 -192 246q0 247 194 247q80 0 132 -53v267h48v-651zM371 162v150q0 56 -38 90t-94 34q-84 0 -119 -61q-26 -47 -26 -138q0 -198 143 -198q57 0 95.5 33.5t38.5 89.5z" />
    <glyph glyph-name="e" unicode="e" horiz-adv-x="477" 
d="M432 266v-40h-337q3 -187 164 -187q82 0 123 53l38 -30q-55 -71 -161 -71q-214 0 -214 246q0 247 204 247q93 0 141 -65q42 -57 42 -153zM383 274q-3 162 -134 162q-143 0 -153 -162h287z" />
    <glyph glyph-name="f" unicode="f" horiz-adv-x="286" 
d="M266 698v-48q-69 0 -98 -45q-22 -34 -22 -106v-21h104v-48h-104v-430h-46v430h-50v48h50v21q0 89 27 131q44 68 139 68z" />
    <glyph glyph-name="g" unicode="g" horiz-adv-x="488" 
d="M453 -13q0 -78 -73 -129q-65 -46 -145 -46q-71 0 -125 29q-65 36 -65 101q0 20 7 42l46 -15q-5 -15 -5 -27q0 -42 53 -66q41 -19 89 -19q60 0 111 33q59 38 59 96q0 29 -24 46q-20 15 -50 15q-28 0 -82 -12.5t-83 -12.5q-81 0 -81 66q0 53 58 97q-74 38 -74 142
q0 160 168 160q82 0 122 -37q39 11 39 51h48q0 -69 -59 -89q18 -37 18 -85q0 -159 -168 -159q-28 0 -56 4q-51 -31 -51 -78q0 -28 34 -28q28 0 83.5 14t83.5 14q51 0 86.5 -29t35.5 -78zM357 327q0 114 -120 114t-120 -114q0 -116 120 -116t120 116z" />
    <glyph glyph-name="h" unicode="h" horiz-adv-x="503" 
d="M443 0h-48v268q0 82 -29 122q-35 46 -113 46q-51 0 -91 -30q-44 -33 -44 -82v-324h-48v698h48v-273q48 59 135 59q190 0 190 -216v-268z" />
    <glyph glyph-name="i" unicode="i" horiz-adv-x="202" 
d="M137 662q0 -15 -10.5 -25.5t-25.5 -10.5t-25.5 10.5t-10.5 25.5t10.5 25.5t25.5 10.5t25.5 -10.5t10.5 -25.5zM125 0h-48v478h48v-478z" />
    <glyph glyph-name="j" unicode="j" horiz-adv-x="230" 
d="M160 662q0 -15 -10.5 -25.5t-25.5 -10.5t-25.5 10.5t-10.5 25.5t10.5 25.5t25.5 10.5t25.5 -10.5t10.5 -25.5zM148 -21q0 -199 -168 -199v48q120 0 120 151v499h48v-499z" />
    <glyph glyph-name="k" unicode="k" horiz-adv-x="439" 
d="M429 0h-67l-244 256v-256h-48v698h48v-439l204 219h63l-204 -219z" />
    <glyph glyph-name="l" unicode="l" horiz-adv-x="201" 
d="M166 0q-96 0 -96 112v586h48v-586q0 -64 48 -64v-48z" />
    <glyph glyph-name="m" unicode="m" horiz-adv-x="770" 
d="M710 0h-48v268q0 168 -127 168q-123 0 -123 -168v-268h-48v268q0 168 -127 168q-45 0 -82 -30t-37 -74v-332h-48v478h48v-51q43 57 122 57q106 0 151 -87q46 87 144 87q175 0 175 -216v-268z" />
    <glyph glyph-name="n" unicode="n" horiz-adv-x="503" 
d="M443 0h-48v268q0 82 -29 122q-35 46 -113 46q-58 0 -96.5 -34t-38.5 -84v-318h-48v478h48v-52q49 58 135 58q190 0 190 -216v-268z" />
    <glyph glyph-name="o" unicode="o" 
d="M444 237q0 -246 -199 -246q-200 0 -200 246q0 247 200 247q199 0 199 -247zM396 237q0 93 -29 140q-36 59 -122 59q-87 0 -123 -59q-28 -47 -28 -140q0 -92 28 -139q36 -59 122 -59q87 0 123 59q29 47 29 139z" />
    <glyph glyph-name="p" unicode="p" horiz-adv-x="488" 
d="M443 241q0 -247 -190 -247q-89 0 -135 56v-270h-48v698h48v-51q48 61 135 61q190 0 190 -247zM395 241q0 90 -25 137q-34 62 -117 62q-56 0 -95.5 -34t-39.5 -90v-150q0 -55 39.5 -89t95.5 -34q83 0 117 61q25 47 25 137z" />
    <glyph glyph-name="q" unicode="q" horiz-adv-x="491" 
d="M431 471l-13 -40v-651h-48v269q-50 -55 -134 -55q-191 0 -191 247t191 247q80 0 134 -55l15 53zM370 166v150q0 55 -39 89.5t-95 34.5q-143 0 -143 -199q0 -198 143 -198q56 0 95 34t39 89z" />
    <glyph glyph-name="r" unicode="r" horiz-adv-x="374" 
d="M344 466l-24 -45q-36 15 -67 15q-53 0 -94 -34.5t-41 -83.5v-318h-48v478h48v-56q46 62 135 62q50 0 91 -18z" />
    <glyph glyph-name="s" unicode="s" horiz-adv-x="447" 
d="M407 134q0 -67 -56 -107q-49 -36 -119 -36q-74 0 -123 31q-57 35 -69 104l47 8q18 -95 145 -95q50 0 85 22q42 26 42 73q0 58 -78 83l-145 40q-78 32 -78 105q0 62 51 95q43 28 108 28q125 0 172 -96l-43 -21q-34 69 -129 69q-111 0 -111 -75q0 -48 78 -71l145 -41
q78 -36 78 -116z" />
    <glyph glyph-name="t" unicode="t" horiz-adv-x="271" 
d="M226 440h-79v-328q0 -41 15 -53q12 -11 51 -11v-48h-18q-96 0 -96 112v328h-69v38h69v148h48v-148h79v-38z" />
    <glyph glyph-name="u" unicode="u" horiz-adv-x="498" 
d="M433 0h-48v47q-52 -53 -134 -53q-191 0 -191 216v268h48v-268q0 -83 29 -123q34 -46 114 -46q47 0 88 30q46 33 46 79v328h48v-478z" />
    <glyph glyph-name="v" unicode="v" horiz-adv-x="448" 
d="M428 478l-179 -478h-51l-178 478h51l153 -409l153 409h51z" />
    <glyph glyph-name="w" unicode="w" horiz-adv-x="731" 
d="M711 478l-151 -478h-51l-145 405l-144 -405h-51l-149 478h50l126 -402l143 402h50l144 -402l127 402h51z" />
    <glyph glyph-name="x" unicode="x" horiz-adv-x="436" 
d="M416 0h-59l-139 204l-140 -204h-58l169 247l-161 231h60l130 -189l129 189h59l-159 -231z" />
    <glyph glyph-name="y" unicode="y" horiz-adv-x="448" 
d="M428 478l-224 -600q-37 -99 -130 -98h-19v48h20q59 0 84 67l39 105l-178 478h51l153 -409l152 409h52z" />
    <glyph glyph-name="z" unicode="z" horiz-adv-x="446" 
d="M401 0h-361v52l300 378h-276v48h337v-49l-303 -381h303v-48z" />
    <glyph glyph-name="braceleft" unicode="{" horiz-adv-x="334" 
d="M284 -61q-155 0 -155 167q0 20 7.5 58t7.5 58q0 108 -94 108v39q94 -1 94 108q0 18 -7.5 54.5t-7.5 54.5q0 87 33 128q36 45 122 45v-41q-64 0 -88 -41q-19 -30 -19 -99q0 -17 8 -50t8 -50q0 -108 -79 -129q41 -9 62 -49q17 -34 17 -79q0 -18 -8 -52t-8 -52
q0 -137 107 -137v-41z" />
    <glyph glyph-name="bar" unicode="|" horiz-adv-x="241" 
d="M146 -76h-51v850h51v-850z" />
    <glyph glyph-name="braceright" unicode="}" horiz-adv-x="334" 
d="M284 330q-94 0 -94 -108q0 -20 7.5 -58t7.5 -58q0 -167 -155 -167v41q107 0 107 137q0 18 -8.5 52t-8.5 52q0 45 18 79q21 40 61 49q-78 21 -78 129q0 17 7.5 50t7.5 50q0 69 -18 99q-24 41 -88 41v41q85 0 122 -45q32 -41 32 -128q0 -18 -7 -54.5t-7 -54.5
q0 -109 94 -108v-39z" />
    <glyph glyph-name="asciitilde" unicode="~" horiz-adv-x="465" 
d="M415 295q-53 -56 -103 -56q-33 0 -83 32t-80 32q-38 0 -65 -39l-34 30q47 56 101 56q34 0 84 -32t79 -32q35 0 68 40z" />
    <glyph glyph-name="Adieresis" unicode="&#xc4;" horiz-adv-x="617" 
d="M454 818q0 -18 -12.5 -30.5t-30.5 -12.5t-31 12.5t-13 30.5t13 31t31 13t30.5 -13t12.5 -31zM247 818q0 -18 -12.5 -30.5t-30.5 -12.5t-31 12.5t-13 30.5t13 31t31 13t30.5 -13t12.5 -31zM607 0h-54l-82 213h-325l-82 -213h-54l267 698h63zM453 261l-145 379l-144 -379
h289z" />
    <glyph glyph-name="Aring" unicode="&#xc5;" horiz-adv-x="617" 
d="M425 861q0 -48 -34 -82t-83 -34q-48 0 -82 34t-34 82t34 82.5t82 34.5q49 0 83 -34.5t34 -82.5zM607 0h-54l-82 213h-325l-82 -213h-54l267 698h63zM377 861q0 28 -20 48t-49 20q-28 0 -48 -20t-20 -48t20 -48t48 -20q29 0 49 20t20 48zM453 261l-145 379l-144 -379h289z
" />
    <glyph glyph-name="Ccedilla" unicode="&#xc7;" horiz-adv-x="573" 
d="M528 101q-82 -100 -179 -108l27 -64l-65 -125h-66l82 129l-25 59q-138 7 -203 119q-54 91 -54 238q0 152 58 245q71 113 215 113q68 0 119 -28q44 -25 91 -82l-38 -32q-40 47 -75 68q-41 23 -97 23q-122 0 -178 -98q-44 -78 -44 -209t44 -209q56 -98 178 -98q56 0 97 24
q35 20 75 67z" />
    <glyph glyph-name="Eacute" unicode="&#xc9;" horiz-adv-x="564" 
d="M384 921l-95 -146h-57l85 146h67zM509 0h-434v0v0v698h434v-50h-383v-259h335v-51h-335v-288h383v-50z" />
    <glyph glyph-name="Ntilde" unicode="&#xd1;" horiz-adv-x="620" 
d="M471 818q-38 -49 -83 -49q-29 0 -76.5 21.5t-68.5 21.5t-45 -31l-37 30q37 49 82 49q29 0 76.5 -21.5t68.5 -21.5t45 31zM545 0h-54l-365 607v-607h-51v698h54l366 -607v607h50v-698z" />
    <glyph glyph-name="Odieresis" unicode="&#xd6;" horiz-adv-x="636" 
d="M461 818q0 -17 -13 -30t-30 -13q-18 0 -31 13t-13 30q0 18 13 31t31 13q17 0 30 -13t13 -31zM254 818q0 -17 -13 -30t-30 -13q-18 0 -31 13t-13 30q0 18 13 31t31 13q17 0 30 -13t13 -31zM591 349q0 -157 -58 -248q-69 -110 -215 -110q-145 0 -215 110q-58 91 -58 248
q0 153 58 245q70 113 215 113t215 -113q58 -92 58 -245zM541 349q0 307 -223 307q-222 0 -222 -307t222 -307q223 0 223 307z" />
    <glyph glyph-name="Udieresis" unicode="&#xdc;" horiz-adv-x="634" 
d="M466 818q0 -17 -12.5 -30t-30.5 -13t-30.5 13t-12.5 30q0 18 12.5 31t30.5 13t30.5 -13t12.5 -31zM259 818q0 -17 -12.5 -30t-30.5 -13t-30.5 13t-12.5 30q0 18 12.5 31t30.5 13t30.5 -13t12.5 -31zM564 289q0 -298 -247 -298t-247 298v409h51v-409q0 -118 37 -175
q46 -72 159 -72t159 72q37 57 37 175v409h51v-409z" />
    <glyph glyph-name="aacute" unicode="&#xe1;" horiz-adv-x="461" 
d="M335 691l-95 -146h-57l85 146h67zM421 5l-44 -13l-19 48q-64 -50 -144 -50q-73 0 -119 36q-50 39 -50 109q0 66 49 105q45 35 112 35h70q58 0 80 24v46q0 40 -37 67q-34 24 -75 24q-106 0 -130 -79l-46 14q41 113 178 113q61 0 108 -37q50 -40 50 -99v-297zM356 101v143
q-28 -15 -68 -15h-82q-47 0 -78 -23q-34 -25 -34 -71q0 -47 37 -74q33 -23 83 -23q81 0 142 63z" />
    <glyph glyph-name="agrave" unicode="&#xe0;" horiz-adv-x="461" 
d="M296 545h-57l-95 146h67zM421 5l-44 -13l-19 48q-64 -50 -144 -50q-73 0 -119 36q-50 39 -50 109q0 66 49 105q45 35 112 35h70q58 0 80 24v46q0 40 -37 67q-34 24 -75 24q-106 0 -130 -79l-46 14q41 113 178 113q61 0 108 -37q50 -40 50 -99v-297zM356 101v143
q-28 -15 -68 -15h-82q-47 0 -78 -23q-34 -25 -34 -71q0 -47 37 -74q33 -23 83 -23q81 0 142 63z" />
    <glyph glyph-name="acircumflex" unicode="&#xe2;" horiz-adv-x="461" 
d="M369 533h-58l-72 122l-71 -122h-57l91 146h76zM421 5l-44 -13l-19 48q-64 -50 -144 -50q-73 0 -119 36q-50 39 -50 109q0 66 49 105q45 35 112 35h70q58 0 80 24v46q0 40 -37 67q-34 24 -75 24q-106 0 -130 -79l-46 14q41 113 178 113q61 0 108 -37q50 -40 50 -99v-297z
M356 101v143q-28 -15 -68 -15h-82q-47 0 -78 -23q-34 -25 -34 -71q0 -47 37 -74q33 -23 83 -23q81 0 142 63z" />
    <glyph glyph-name="adieresis" unicode="&#xe4;" horiz-adv-x="461" 
d="M381 585q0 -18 -13 -30.5t-30 -12.5q-18 0 -31 12.5t-13 30.5t13 31t31 13q17 0 30 -13t13 -31zM184 585q0 -18 -13 -30.5t-31 -12.5t-30.5 12.5t-12.5 30.5t12.5 31t30.5 13t31 -13t13 -31zM421 5l-44 -13l-19 48q-64 -50 -144 -50q-73 0 -119 36q-50 39 -50 109
q0 66 49 105q45 35 112 35h70q58 0 80 24v46q0 40 -37 67q-34 24 -75 24q-106 0 -130 -79l-46 14q41 113 178 113q61 0 108 -37q50 -40 50 -99v-297zM356 101v143q-28 -15 -68 -15h-82q-47 0 -78 -23q-34 -25 -34 -71q0 -47 37 -74q33 -23 83 -23q81 0 142 63z" />
    <glyph glyph-name="atilde" unicode="&#xe3;" horiz-adv-x="461" 
d="M388 595q-38 -49 -82 -49q-30 0 -77 21.5t-68 21.5t-46 -31l-37 30q38 49 82 49q30 0 77 -21.5t68 -21.5t46 31zM421 5l-44 -13l-19 48q-64 -50 -144 -50q-73 0 -119 36q-50 39 -50 109q0 66 49 105q45 35 112 35h70q58 0 80 24v46q0 40 -37 67q-34 24 -75 24
q-106 0 -130 -79l-46 14q41 113 178 113q61 0 108 -37q50 -40 50 -99v-297zM356 101v143q-28 -15 -68 -15h-82q-47 0 -78 -23q-34 -25 -34 -71q0 -47 37 -74q33 -23 83 -23q81 0 142 63z" />
    <glyph glyph-name="aring" unicode="&#xe5;" horiz-adv-x="461" 
d="M358 649q0 -48 -34 -82.5t-82 -34.5q-49 0 -83 34.5t-34 82.5t34 82t83 34q48 0 82 -34t34 -82zM421 5l-44 -13l-19 48q-64 -50 -144 -50q-73 0 -119 36q-50 39 -50 109q0 66 49 105q45 35 112 35h70q58 0 80 24v46q0 40 -37 67q-34 24 -75 24q-106 0 -130 -79l-46 14
q41 113 178 113q61 0 108 -37q50 -40 50 -99v-297zM310 649q0 28 -20 48t-48 20q-29 0 -49 -20t-20 -48t20 -48t49 -20q28 0 48 20t20 48zM356 101v143q-28 -15 -68 -15h-82q-47 0 -78 -23q-34 -25 -34 -71q0 -47 37 -74q33 -23 83 -23q81 0 142 63z" />
    <glyph glyph-name="ccedilla" unicode="&#xe7;" horiz-adv-x="462" 
d="M417 66q-61 -67 -134 -73l28 -64l-65 -125h-66l82 129l-26 59q-94 8 -145 80q-46 65 -46 167q0 108 51 175q57 73 162 73q52 0 87 -17t72 -57l-35 -32q-54 61 -124 61q-86 0 -127 -62q-35 -52 -35 -141t35 -141q41 -61 127 -61q70 0 124 61z" />
    <glyph glyph-name="eacute" unicode="&#xe9;" horiz-adv-x="477" 
d="M362 691l-95 -146h-57l85 146h67zM432 266v-40h-337q3 -187 164 -187q82 0 123 53l38 -30q-55 -71 -161 -71q-214 0 -214 246q0 247 204 247q93 0 141 -65q42 -57 42 -153zM383 274q-3 162 -134 162q-143 0 -153 -162h287z" />
    <glyph glyph-name="egrave" unicode="&#xe8;" horiz-adv-x="477" 
d="M307 545h-57l-95 146h67zM432 266v-40h-337q2 -187 164 -187q82 0 123 53l38 -30q-55 -71 -161 -71q-214 0 -214 246q0 247 204 247q93 0 141 -65q42 -57 42 -153zM383 274q-3 162 -134 162q-143 0 -153 -162h287z" />
    <glyph glyph-name="ecircumflex" unicode="&#xea;" horiz-adv-x="477" 
d="M378 533h-58l-72 122l-71 -122h-57l91 146h76zM432 266v-40h-337q3 -187 164 -187q82 0 123 53l38 -30q-55 -71 -161 -71q-214 0 -214 246q0 247 204 247q93 0 141 -65q42 -57 42 -153zM383 274q-3 162 -134 162q-143 0 -153 -162h287z" />
    <glyph glyph-name="edieresis" unicode="&#xeb;" horiz-adv-x="477" 
d="M391 585q0 -18 -13 -30.5t-30 -12.5q-18 0 -31 12.5t-13 30.5t13 31t31 13q17 0 30 -13t13 -31zM194 585q0 -18 -13 -30.5t-31 -12.5t-30.5 12.5t-12.5 30.5t12.5 31t30.5 13t31 -13t13 -31zM432 266v-40h-337q3 -187 164 -187q82 0 123 53l38 -30q-55 -71 -161 -71
q-214 0 -214 246q0 247 204 247q93 0 141 -65q42 -57 42 -153zM383 274q-3 162 -134 162q-143 0 -153 -162h287z" />
    <glyph glyph-name="iacute" unicode="&#xed;" horiz-adv-x="212" 
d="M218 691l-95 -146h-57l85 146h67zM130 0h-48v478h48v-478z" />
    <glyph glyph-name="igrave" unicode="&#xec;" horiz-adv-x="212" 
d="M163 545h-57l-95 146h67zM130 0h-48v478h48v-478z" />
    <glyph glyph-name="icircumflex" unicode="&#xee;" horiz-adv-x="212" 
d="M232 533h-58l-71 122l-72 -122h-57l91 146h76zM130 0h-48v478h48v-478z" />
    <glyph glyph-name="idieresis" unicode="&#xef;" horiz-adv-x="212" 
d="M232 585q0 -18 -12.5 -30.5t-30.5 -12.5t-30.5 12.5t-12.5 30.5t12.5 31t30.5 13t30.5 -13t12.5 -31zM68 585q0 -18 -13 -30.5t-31 -12.5t-30.5 12.5t-12.5 30.5t12.5 31t30.5 13t31 -13t13 -31zM130 0h-48v478h48v-478z" />
    <glyph glyph-name="ntilde" unicode="&#xf1;" horiz-adv-x="493" 
d="M409 595q-38 -49 -82 -49q-30 0 -77 21.5t-68 21.5t-46 -31l-37 30q38 49 82 49q30 0 77 -21.5t68 -21.5t46 31zM438 0h-48v268q0 82 -29 122q-35 46 -113 46q-58 0 -96.5 -34t-38.5 -84v-318h-48v478h48v-50q49 56 135 56q190 0 190 -216v-268z" />
    <glyph glyph-name="oacute" unicode="&#xf3;" 
d="M352 691l-95 -146h-57l85 146h67zM444 237q0 -246 -199 -246q-200 0 -200 246q0 247 200 247q199 0 199 -247zM396 237q0 93 -29 140q-36 59 -122 59q-87 0 -123 -59q-29 -47 -29 -140q0 -92 29 -139q36 -59 122 -59q87 0 123 59q29 47 29 139z" />
    <glyph glyph-name="ograve" unicode="&#xf2;" 
d="M302 545h-57l-95 146h67zM444 237q0 -246 -199 -246q-200 0 -200 246q0 247 200 247q199 0 199 -247zM396 237q0 93 -29 140q-36 59 -122 59q-87 0 -123 -59q-29 -47 -29 -140q0 -92 29 -139q36 -59 122 -59q87 0 123 59q29 47 29 139z" />
    <glyph glyph-name="ocircumflex" unicode="&#xf4;" 
d="M373 533h-58l-72 122l-71 -122h-57l91 146h76zM444 237q0 -246 -199 -246q-200 0 -200 246q0 247 200 247q199 0 199 -247zM396 237q0 93 -29 140q-36 59 -122 59q-87 0 -123 -59q-29 -47 -29 -140q0 -92 29 -139q36 -59 122 -59q87 0 123 59q29 47 29 139z" />
    <glyph glyph-name="odieresis" unicode="&#xf6;" 
d="M387 585q0 -18 -13 -30.5t-30 -12.5q-18 0 -31 12.5t-13 30.5t13 31t31 13q17 0 30 -13t13 -31zM190 585q0 -18 -13 -30.5t-31 -12.5t-30.5 12.5t-12.5 30.5t12.5 31t30.5 13t31 -13t13 -31zM444 237q0 -246 -199 -246q-200 0 -200 246q0 247 200 247q199 0 199 -247z
M396 237q0 93 -29 140q-36 59 -122 59q-87 0 -123 -59q-29 -47 -29 -140q0 -92 29 -139q36 -59 122 -59q87 0 123 59q29 47 29 139z" />
    <glyph glyph-name="otilde" unicode="&#xf5;" 
d="M404 595q-37 -49 -82 -49q-29 0 -76.5 21.5t-68.5 21.5q-22 0 -46 -31l-37 30q37 49 82 49q29 0 76.5 -21.5t68.5 -21.5q22 0 46 31zM444 237q0 -246 -199 -246q-200 0 -200 246q0 247 200 247q199 0 199 -247zM396 237q0 93 -29 140q-36 59 -122 59q-87 0 -123 -59
q-29 -47 -29 -140q0 -92 29 -139q36 -59 122 -59q87 0 123 59q29 47 29 139z" />
    <glyph glyph-name="uacute" unicode="&#xfa;" horiz-adv-x="498" 
d="M364 691l-95 -146h-57l85 146h67zM433 0h-48v47q-52 -53 -134 -53q-191 0 -191 216v268h48v-268q0 -81 29 -121q35 -47 114 -47q47 0 88 30q46 32 46 78v328h48v-478z" />
    <glyph glyph-name="ugrave" unicode="&#xf9;" horiz-adv-x="498" 
d="M307 545h-57l-95 146h67zM433 0h-48v47q-52 -53 -134 -53q-191 0 -191 216v268h48v-268q0 -81 29 -121q35 -47 114 -47q47 0 88 30q46 32 46 78v328h48v-478z" />
    <glyph glyph-name="ucircumflex" unicode="&#xfb;" horiz-adv-x="498" 
d="M376 533h-58l-72 122l-71 -122h-57l91 146h76zM433 0h-48v47q-52 -53 -134 -53q-191 0 -191 216v268h48v-268q0 -81 29 -121q35 -47 114 -47q47 0 88 30q46 32 46 78v328h48v-478z" />
    <glyph glyph-name="udieresis" unicode="&#xfc;" horiz-adv-x="498" 
d="M393 585q0 -18 -13 -30.5t-30 -12.5q-18 0 -31 12.5t-13 30.5t13 31t31 13q17 0 30 -13t13 -31zM194 585q0 -18 -13 -30.5t-31 -12.5t-30.5 12.5t-12.5 30.5t12.5 31t30.5 13t31 -13t13 -31zM433 0h-48v47q-52 -53 -134 -53q-191 0 -191 216v268h48v-268q0 -81 29 -121
q35 -47 114 -47q47 0 88 30q46 32 46 78v328h48v-478z" />
    <glyph glyph-name="dagger" unicode="&#x2020;" horiz-adv-x="499" 
d="M444 428h-170v-428h-49v428h-170v50h170v220h49v-220h170v-50z" />
    <glyph glyph-name="degree" unicode="&#xb0;" horiz-adv-x="271" 
d="M226 661q0 -37 -26.5 -64t-64.5 -27q-37 0 -63.5 27t-26.5 64t26.5 63.5t63.5 26.5q38 0 64.5 -26.5t26.5 -63.5zM187 661q0 21 -15.5 36.5t-36.5 15.5t-36 -15.5t-15 -36.5t15 -36.5t36 -15.5t36.5 15.5t15.5 36.5z" />
    <glyph glyph-name="cent" unicode="&#xa2;" horiz-adv-x="461" 
d="M400 60q-62 -68 -146 -68q-31 0 -59 8l-16 -78l-35 7l18 84q-101 53 -101 205q0 98 46 158q52 67 147 67l15 71l34 -8l-14 -65q58 -8 111 -65l-32 -30q-42 48 -88 54l-76 -359q24 -8 50 -8q64 0 114 56zM245 402q-137 -8 -137 -184q0 -116 64 -160z" />
    <glyph glyph-name="sterling" unicode="&#xa3;" horiz-adv-x="465" 
d="M420 560l-34 -29q-54 62 -133 62q-60 0 -92 -41q-28 -36 -28 -98q0 -36 15 -114h116l-9 -44h-98q13 -63 13 -105q0 -68 -31 -146h273v-45h-324v37q37 85 37 154q0 39 -13 105h-67l9 44h49q-15 75 -15 114q0 80 42 130q44 54 123 54q100 0 167 -78z" />
    <glyph glyph-name="section" unicode="&#xa7;" horiz-adv-x="502" 
d="M437 222q0 -92 -59 -143q39 -38 39 -102q0 -77 -46.5 -127t-121.5 -50q-103 0 -176 136l43 23q60 -109 133 -109q54 0 86.5 35.5t32.5 91.5q0 52 -37 78q-23 17 -86 33q-180 46 -180 184q0 92 59 142q-38 38 -38 103q0 76 46 126t122 50q102 0 175 -135l-43 -24
q-59 110 -132 110q-55 0 -87 -35.5t-32 -91.5q0 -53 36 -79q23 -16 86 -32q180 -46 180 -184zM388 222q0 100 -143 136q-50 13 -78 27q-53 -35 -53 -113q0 -101 143 -136q50 -13 78 -27q53 34 53 113z" />
    <glyph glyph-name="bullet" unicode="&#x2022;" horiz-adv-x="424" 
d="M359 338q0 -61 -43 -104t-104 -43t-104 43t-43 104t43 104t104 43t104 -43t43 -104z" />
    <glyph glyph-name="paragraph" unicode="&#xb6;" horiz-adv-x="557" 
d="M472 -151h-50v795h-123v-795h-51v462q-80 0 -136.5 57t-56.5 137t56.5 136.5t136.5 56.5h224v-849z" />
    <glyph glyph-name="germandbls" unicode="&#xdf;" horiz-adv-x="562" 
d="M482 235q0 -232 -195 -237v48q146 3 146 192q0 90 -28 135q-35 55 -119 59v43q31 5 50 33q18 25 18 56q0 35 -25.5 60.5t-60.5 25.5q-120 0 -120 -151v-499h-48v499q0 199 168 199q55 0 94.5 -39.5t39.5 -94.5q0 -58 -43 -98q123 -43 123 -231z" />
    <glyph glyph-name="registered" unicode="&#xae;" horiz-adv-x="791" 
d="M714 380q0 -132 -93 -225.5t-225 -93.5t-225.5 93.5t-93.5 225.5q0 131 93.5 224.5t225.5 93.5t225 -93.5t93 -224.5zM675 380q0 115 -82 197t-197 82q-116 0 -198 -82t-82 -197q0 -116 82 -198t198 -82q115 0 197 82t82 198zM536 208h-52l-66 110q-22 37 -45 37h-43
v-147h-44v343h121q114 0 114 -100q0 -35 -22.5 -64t-57.5 -29q5 -5 14 -17zM477 451q0 57 -70 57h-77v-115h77q70 0 70 58z" />
    <glyph glyph-name="copyright" unicode="&#xa9;" horiz-adv-x="791" 
d="M714 380q0 -132 -93.5 -225.5t-224.5 -93.5q-132 0 -225.5 93.5t-93.5 225.5q0 131 93.5 224.5t225.5 93.5q131 0 224.5 -93.5t93.5 -224.5zM675 380q0 115 -82 197t-197 82q-116 0 -198 -82t-82 -197q0 -116 82 -198t198 -82q115 0 197 82t82 198zM509 257
q-46 -55 -106 -55q-72 0 -109 55q-31 47 -31 123q0 75 31 122q37 55 109 55q60 0 106 -55l-34 -28q-32 39 -72 39q-94 0 -94 -133q0 -134 94 -134q40 0 72 39z" />
    <glyph glyph-name="trademark" unicode="&#x2122;" horiz-adv-x="483" 
d="M421 489h-25v152l-59 -152h-27l-59 151v-151h-24v209h25l72 -180l71 180h26v-209zM203 673h-68v-184h-25v184h-68v25h161v-25z" />
    <glyph glyph-name="acute" unicode="&#xb4;" horiz-adv-x="282" 
d="M217 691l-95 -146h-57l85 146h67z" />
    <glyph glyph-name="dieresis" unicode="&#xa8;" 
d="M387 585q0 -18 -13 -30.5t-30 -12.5q-18 0 -31 12.5t-13 30.5t13 31t31 13q17 0 30 -13t13 -31zM190 585q0 -18 -13 -30.5t-31 -12.5t-30.5 12.5t-12.5 30.5t12.5 31t30.5 13t31 -13t13 -31z" />
    <glyph glyph-name="AE" unicode="&#xc6;" horiz-adv-x="903" 
d="M858 0h-409v0h-1v213h-276l-101 -213h-56l330 698h513v-50h-359v-259h311v-51h-311v-288h359v-50zM448 261v387h-71l-182 -387h253z" />
    <glyph glyph-name="Oslash" unicode="&#xd8;" horiz-adv-x="636" 
d="M591 349q0 -153 -58 -245q-70 -113 -215 -113q-89 0 -151 44l-19 -35h-55l38 67q-86 94 -86 282q0 153 58 245q70 113 215 113q86 0 146 -40l17 31h55l-35 -62q90 -94 90 -287zM541 349q0 162 -66 240l-283 -509q51 -38 126 -38q223 0 223 307zM439 622q-49 34 -121 34
q-222 0 -222 -307q0 -156 61 -235z" />
    <glyph glyph-name="plusminus" unicode="&#xb1;" horiz-adv-x="511" 
d="M456 248h-175v-175h-51v175h-175v51h175v175h51v-175h175v-51zM456 0h-401v49h401v-49z" />
    <glyph glyph-name="yen" unicode="&#xa5;" horiz-adv-x="525" 
d="M494 635l-142 -292h82l-10 -48h-96l-35 -74h141l-10 -48h-136v-172h-51v172h-146l10 48h132l-36 74h-106l10 48h72l-142 292h56l176 -360l174 360h57z" />
    <glyph glyph-name="mu" unicode="&#xb5;" horiz-adv-x="503" 
d="M438 0h-48v47q-52 -53 -134 -53q-50 0 -79 11q-35 12 -64 48v-249h-48v674h48v-268q0 -168 143 -168q47 0 90.5 31t43.5 77v328h48v-478z" />
    <glyph glyph-name="mu" unicode="&#x3bc;" horiz-adv-x="503" 
d="M438 0h-48v47q-52 -53 -134 -53q-50 0 -79 11q-35 12 -64 48v-249h-48v674h48v-268q0 -168 143 -168q47 0 90.5 31t43.5 77v328h48v-478z" />
    <glyph glyph-name="ordfeminine" unicode="&#xaa;" horiz-adv-x="394" 
d="M354 321l-45 -16l-14 32q-49 -37 -111 -37q-60 0 -98 30q-42 33 -42 92q0 55 41 88q37 30 93 30h55q42 0 57 15v34q0 29 -26 48.5t-57 19.5q-79 0 -98 -65l-48 14q36 101 148 101q50 0 89 -31q42 -34 42 -84v-236zM263 201h-132v49h132v-49zM290 397v102q-18 -8 -47 -8
h-65q-36 0 -59.5 -18t-23.5 -51q0 -35 25.5 -53.5t63.5 -18.5q60 0 106 47z" />
    <glyph glyph-name="ordmasculine" unicode="&#xba;" horiz-adv-x="421" 
d="M375 504q0 -204 -164 -204q-165 0 -165 204q0 203 165 203q164 0 164 -203zM277 201h-132v49h132v-49zM325 504q0 71 -21 107q-27 46 -93 46q-67 0 -94 -46q-21 -36 -21 -107q0 -72 21 -107q27 -46 94 -46q114 0 114 153z" />
    <glyph glyph-name="ae" unicode="&#xe6;" horiz-adv-x="778" 
d="M737 266l-1 -40h-338q2 -187 166 -187q82 0 123 53l38 -30q-55 -71 -161 -71q-121 0 -174 80q-78 -81 -182 -81q-72 0 -118 36q-51 39 -51 109q0 65 49 104q45 36 112 36h70q56 0 79 24v46q0 40 -37 67q-33 24 -74 24q-106 0 -130 -79l-46 14q41 113 178 113
q45 0 86.5 -23t60.5 -62q50 85 167 85q93 0 140 -65q43 -57 43 -153zM688 274q-2 162 -134 162q-147 0 -156 -162h290zM368 117q-18 51 -19 127q-27 -15 -67 -15h-82q-47 0 -77 -23q-35 -26 -35 -71q0 -48 38 -74q32 -23 82 -23q81 0 160 79z" />
    <glyph glyph-name="oslash" unicode="&#xf8;" 
d="M444 237q0 -246 -199 -246q-65 0 -109 26l-11 -17h-49l26 44q-57 62 -57 193q0 247 200 247q63 0 106 -25l13 20h49l-28 -47q59 -61 59 -195zM396 237q0 105 -37 152l-198 -330q33 -20 83 -20q87 0 123 59q29 47 29 139zM326 417q-32 19 -81 19q-87 0 -123 -59
q-29 -47 -29 -140q0 -102 36 -149z" />
    <glyph glyph-name="questiondown" unicode="&#xbf;" horiz-adv-x="468" 
d="M267 666q0 -16 -12 -28t-27 -12q-16 0 -28 12t-12 28q0 15 12 27.5t28 12.5q15 0 27 -12.5t12 -27.5zM428 170q0 -80 -61 -131q-57 -47 -139 -47q-83 0 -140 50t-57 132q0 69 44 107l84 55q46 37 49 104l4 83h33q7 -57 7 -83q0 -81 -44 -124l-82 -57q-44 -32 -44 -85
q0 -62 42 -97.5t104 -35.5q61 0 106.5 35t45.5 94h48z" />
    <glyph glyph-name="exclamdown" unicode="&#xa1;" horiz-adv-x="280" 
d="M180 667q0 -17 -12 -28.5t-28 -11.5q-17 0 -28.5 11.5t-11.5 28.5q0 16 11.5 28t28.5 12q16 0 28 -12t12 -28zM167 0h-54v339l10 187h33l11 -187v-339z" />
    <glyph glyph-name="logicalnot" unicode="&#xac;" horiz-adv-x="501" 
d="M446 103h-43v135h-358v43h401v-178z" />
    <glyph glyph-name="florin" unicode="&#x192;" horiz-adv-x="361" 
d="M336 698v-48q-70 0 -110 -49q-28 -34 -41 -106l-11 -65h79v-48h-88l-103 -582l-47 8l101 574h-63v48h72l13 73q14 85 51 129q54 66 147 66z" />
    <glyph glyph-name="guillemotleft" unicode="&#xab;" horiz-adv-x="471" 
d="M416 40l-199 194v48l199 194v0v-67l-155 -151l155 -151v-67zM244 40l-199 194v48l199 194v0v-67l-154 -151l154 -151v-67z" />
    <glyph glyph-name="guillemotright" unicode="&#xbb;" horiz-adv-x="471" 
d="M426 234l-199 -194v0v67l154 151l-154 151v67l199 -194v-48zM254 234l-199 -194v0v67l155 151l-155 151v67l199 -194v-48z" />
    <glyph glyph-name="ellipsis" unicode="&#x2026;" horiz-adv-x="629" 
d="M554 35q0 -18 -12.5 -30.5t-30.5 -12.5t-30.5 12.5t-12.5 30.5t12.5 30.5t30.5 12.5t30.5 -12.5t12.5 -30.5zM358 35q0 -18 -13 -30.5t-30 -12.5q-18 0 -31 12.5t-13 30.5t13 30.5t31 12.5q17 0 30 -12.5t13 -30.5zM162 35q0 -18 -13 -30.5t-31 -12.5q-17 0 -30 12.5
t-13 30.5t13 30.5t30 12.5q18 0 31 -12.5t13 -30.5z" />
    <glyph glyph-name="nonbreakingspace" unicode="&#xa0;" horiz-adv-x="135" 
 />
    <glyph glyph-name="Agrave" unicode="&#xc0;" horiz-adv-x="617" 
d="M358 775h-57l-95 146h67zM607 0h-54l-82 213h-325l-82 -213h-54l267 698h63zM453 261l-145 379l-144 -379h289z" />
    <glyph glyph-name="Atilde" unicode="&#xc3;" horiz-adv-x="617" 
d="M466 818q-38 -49 -83 -49q-29 0 -76.5 21.5t-68.5 21.5t-45 -31l-37 30q37 49 82 49q29 0 76.5 -21.5t68.5 -21.5t45 31zM607 0h-54l-82 213h-325l-82 -213h-54l267 698h63zM453 261l-145 379l-144 -379h289z" />
    <glyph glyph-name="Otilde" unicode="&#xd5;" horiz-adv-x="636" 
d="M480 818q-38 -49 -83 -49q-29 0 -76.5 21.5t-68.5 21.5t-45 -31l-37 30q37 49 82 49q29 0 76.5 -21.5t68.5 -21.5t45 31zM591 349q0 -153 -58 -245q-70 -113 -215 -113t-215 113q-58 92 -58 245t58 245q70 113 215 113t215 -113q58 -92 58 -245zM541 349q0 307 -223 307
q-222 0 -222 -307t222 -307q223 0 223 307z" />
    <glyph glyph-name="OE" unicode="&#x152;" horiz-adv-x="1006" 
d="M951 0h-410v116q-34 -59 -94 -92t-129 -33q-145 0 -215 113q-58 92 -58 245t58 245q70 113 215 113q69 0 129.5 -33t93.5 -91v115h410v-50h-360v-259h312v-51h-312v-288h360v-50zM541 349q0 307 -223 307q-222 0 -222 -307t222 -307q223 0 223 307z" />
    <glyph glyph-name="oe" unicode="&#x153;" horiz-adv-x="826" 
d="M781 266v-40h-336q2 -187 163 -187q88 0 130 54l38 -30q-57 -72 -168 -72q-138 0 -187 104q-47 -104 -176 -104q-200 0 -200 246q0 247 200 247q129 0 176 -105q49 105 178 105q92 0 140 -65q43 -58 42 -153zM733 274q-4 162 -134 162q-143 0 -153 -162h287zM396 237
q0 93 -29 140q-36 59 -122 59q-87 0 -123 -59q-29 -47 -29 -140q0 -92 29 -139q36 -59 122 -59q87 0 123 59q29 47 29 139z" />
    <glyph glyph-name="endash" unicode="&#x2013;" horiz-adv-x="504" 
d="M449 248h-394v51h394v-51z" />
    <glyph glyph-name="emdash" unicode="&#x2014;" horiz-adv-x="802" 
d="M747 248h-692v51h692v-51z" />
    <glyph glyph-name="quotedblleft" unicode="&#x201c;" horiz-adv-x="355" 
d="M285 752l-7 -166q-1 -16 -12.5 -28t-27.5 -12t-28 10.5t-12 25.5q0 3 7 47l75 123h5zM157 752l-7 -166q-1 -16 -12.5 -28t-27.5 -12q-15 0 -27.5 10.5t-12.5 25.5q0 3 7 47l76 123h4z" />
    <glyph glyph-name="quotedblright" unicode="&#x201d;" horiz-adv-x="355" 
d="M285 716q0 -3 -8 -47l-75 -123h-4l7 166q0 17 11.5 28.5t27.5 11.5t28.5 -10t12.5 -26zM157 716q0 -3 -7 -47l-76 -123h-4l7 166q1 17 12.5 28.5t27.5 11.5q15 0 27.5 -10t12.5 -26z" />
    <glyph glyph-name="quoteleft" unicode="&#x2018;" horiz-adv-x="227" 
d="M157 752l-7 -166q-1 -16 -12.5 -28t-27.5 -12q-15 0 -27.5 10.5t-12.5 25.5q0 3 7 47l76 123h4z" />
    <glyph glyph-name="quoteright" unicode="&#x2019;" horiz-adv-x="227" 
d="M157 716q0 -3 -7 -47l-76 -123h-4l7 166q1 17 12.5 28.5t27.5 11.5q15 0 27.5 -10t12.5 -26z" />
    <glyph glyph-name="divide" unicode="&#xf7;" horiz-adv-x="504" 
d="M293 429q0 -17 -12.5 -30t-30.5 -13t-30.5 13t-12.5 30q0 18 12.5 31t30.5 13t30.5 -13t12.5 -31zM449 248h-394v51h394v-51zM293 119q0 -18 -12.5 -31t-30.5 -13t-30.5 13t-12.5 31q0 17 12.5 30t30.5 13t30.5 -13t12.5 -30z" />
    <glyph glyph-name="ydieresis" unicode="&#xff;" horiz-adv-x="453" 
d="M370 585q0 -17 -13 -30t-30 -13q-18 0 -31 13t-13 30q0 18 13 31t31 13q17 0 30 -13t13 -31zM173 585q0 -17 -13 -30t-31 -13t-30.5 13t-12.5 30q0 18 12.5 31t30.5 13t31 -13t13 -31zM433 478l-224 -600q-37 -99 -131 -98h-19v48h20q60 0 84 67l38 109l-181 474h55
l153 -409l152 409h53z" />
    <glyph glyph-name="Ydieresis" unicode="&#x178;" horiz-adv-x="555" 
d="M426 818q0 -18 -12.5 -30.5t-30.5 -12.5t-30.5 12.5t-12.5 30.5t12.5 31t30.5 13t30.5 -13t12.5 -31zM219 818q0 -18 -12.5 -30.5t-30.5 -12.5t-31 12.5t-13 30.5t13 31t31 13t30.5 -13t12.5 -31zM530 698l-227 -468v-230h-51v232l-227 466h56l197 -409l196 409h56z" />
    <glyph glyph-name="currency" unicode="&#xa4;" horiz-adv-x="559" 
d="M514 48q-63 -58 -153 -58q-98 0 -164 64q-62 61 -78 161h-66l9 43h52q-2 37 -1 80h-60l9 44h53q8 91 47 152q69 107 199 107q90 0 153 -59l-24 -41q-53 54 -129 54q-90 0 -143 -63q-48 -57 -57 -150h233l-9 -44h-226v-23q0 -31 2 -57h233l-9 -43h-219q14 -81 63 -128
q53 -51 132 -51q76 0 129 54z" />
    <glyph glyph-name="guilsinglleft" unicode="&#x2039;" horiz-adv-x="299" 
d="M244 40l-199 194v48l199 194v0v-67l-154 -151l154 -151v-67z" />
    <glyph glyph-name="guilsinglright" unicode="&#x203a;" horiz-adv-x="299" 
d="M254 234l-199 -194v0v67l155 151l-155 151v67l199 -194v-48z" />
    <glyph glyph-name="daggerdbl" unicode="&#x2021;" horiz-adv-x="499" 
d="M444 20h-170v-220h-49v220h-170v50h170v358h-170v50h170v220h49v-220h170v-50h-170v-358h170v-50z" />
    <glyph glyph-name="periodcentered" unicode="&#xb7;" horiz-adv-x="217" 
d="M152 265q0 -18 -13 -31t-31 -13t-30.5 13t-12.5 31t12.5 30.5t30.5 12.5t31 -12.5t13 -30.5z" />
    <glyph glyph-name="periodcentered" unicode="&#x2219;" horiz-adv-x="217" 
d="M152 265q0 -18 -13 -31t-31 -13t-30.5 13t-12.5 31t12.5 30.5t30.5 12.5t31 -12.5t13 -30.5z" />
    <glyph glyph-name="quotesinglbase" unicode="&#x201a;" horiz-adv-x="227" 
d="M157 48l-7 -43l-76 -123h-4l7 166q1 17 12.5 28.5t27.5 11.5q17 0 29.5 -12t10.5 -28z" />
    <glyph glyph-name="quotedblbase" unicode="&#x201e;" horiz-adv-x="355" 
d="M284 48l-7 -43l-75 -123h-4l7 166q0 17 11.5 28.5t27.5 11.5q17 0 30 -12t10 -28zM157 48l-7 -43l-76 -123h-4l7 166q1 17 12.5 28.5t27.5 11.5q17 0 29.5 -12t10.5 -28z" />
    <glyph glyph-name="perthousand" unicode="&#x2030;" horiz-adv-x="952" 
d="M894 170q0 -75 -27 -122q-34 -57 -104 -57q-78 0 -111 70q-33 -70 -110 -70q-71 0 -104 57q-28 47 -28 122q0 74 28 121q33 58 104 58q77 0 110 -71q33 71 111 71q70 0 104 -58q27 -47 27 -121zM530 635l-275 -635h-48l276 635h47zM327 465q0 -75 -27 -121
q-34 -58 -104 -58t-104 58q-27 46 -27 121t27 121q34 58 104 58t104 -58q27 -46 27 -121zM853 170q0 138 -90 138t-90 -138t90 -138t90 138zM632 170q0 138 -90 138q-91 0 -91 -138t91 -138q90 0 90 138zM286 465q0 138 -90 138t-90 -138t90 -138t90 138z" />
    <glyph glyph-name="Acircumflex" unicode="&#xc2;" horiz-adv-x="617" 
d="M437 775h-57l-72 122l-71 -122h-57l85 146h87zM607 0h-54l-82 213h-325l-82 -213h-54l267 698h63zM453 261l-145 379l-144 -379h289z" />
    <glyph glyph-name="Ecircumflex" unicode="&#xca;" horiz-adv-x="564" 
d="M437 775h-57l-72 122l-71 -122h-57l85 146h87zM509 0h-434v0v0v698h434v-50h-383v-259h335v-51h-335v-288h383v-50z" />
    <glyph glyph-name="Aacute" unicode="&#xc1;" horiz-adv-x="617" 
d="M408 921l-95 -146h-57l85 146h67zM607 0h-54l-82 213h-325l-82 -213h-54l267 698h63zM453 261l-145 379l-144 -379h289z" />
    <glyph glyph-name="Edieresis" unicode="&#xcb;" horiz-adv-x="564" 
d="M444 818q0 -18 -12.5 -30.5t-30.5 -12.5t-31 12.5t-13 30.5t13 31t31 13t30.5 -13t12.5 -31zM247 818q0 -18 -12.5 -30.5t-30.5 -12.5t-31 12.5t-13 30.5t13 31t31 13t30.5 -13t12.5 -31zM509 0h-434v698h434v-50h-383v-261h335v-49h-335v-288h383v-50z" />
    <glyph glyph-name="Egrave" unicode="&#xc8;" horiz-adv-x="564" 
d="M348 775h-57l-95 146h67zM509 0h-434v0v0v698h434v-50h-383v-262h335v-48h-335v-288h383v-50z" />
    <glyph glyph-name="Iacute" unicode="&#xcd;" horiz-adv-x="243" 
d="M217 921l-95 -146h-57l85 146h67zM145 0h-51v698h51v-698z" />
    <glyph glyph-name="Icircumflex" unicode="&#xce;" horiz-adv-x="297" 
d="M277 775h-57l-72 122l-71 -122h-57l85 146h87zM171 0h-51v698h51v-698z" />
    <glyph glyph-name="Idieresis" unicode="&#xcf;" horiz-adv-x="274" 
d="M264 818q0 -18 -13 -30.5t-30 -12.5q-18 0 -31 12.5t-13 30.5t13 31t31 13q17 0 30 -13t13 -31zM97 818q0 -18 -13 -30.5t-31 -12.5t-30.5 12.5t-12.5 30.5t12.5 31t30.5 13t31 -13t13 -31zM163 0h-51v698h51v-698z" />
    <glyph glyph-name="Igrave" unicode="&#xcc;" horiz-adv-x="232" 
d="M167 775h-57l-95 146h67zM138 0h-50v698h50v-698z" />
    <glyph glyph-name="Oacute" unicode="&#xd3;" horiz-adv-x="636" 
d="M411 921l-95 -146h-57l85 146h67zM591 349q0 -153 -58 -245q-70 -113 -215 -113t-215 113q-58 92 -58 245t58 245q70 113 215 113t215 -113q58 -92 58 -245zM541 349q0 307 -223 307q-222 0 -222 -307t222 -307q223 0 223 307z" />
    <glyph glyph-name="Ocircumflex" unicode="&#xd4;" horiz-adv-x="636" 
d="M446 775h-57l-71 122l-71 -122h-57l85 146h87zM591 349q0 -153 -58 -245q-70 -113 -215 -113t-215 113q-58 92 -58 245t58 245q70 113 215 113t215 -113q58 -92 58 -245zM541 349q0 307 -223 307q-222 0 -222 -307t222 -307q223 0 223 307z" />
    <glyph glyph-name="Ograve" unicode="&#xd2;" horiz-adv-x="636" 
d="M371 775h-57l-95 146h67zM591 349q0 -153 -58 -245q-70 -113 -215 -113t-215 113q-58 92 -58 245t58 245q70 113 215 113t215 -113q58 -92 58 -245zM541 349q0 307 -223 307q-222 0 -222 -307t222 -307q223 0 223 307z" />
    <glyph glyph-name="Uacute" unicode="&#xda;" horiz-adv-x="634" 
d="M402 921l-95 -146h-57l85 146h67zM564 294q0 -303 -247 -303t-247 303v404h51v-404q0 -118 37 -178q46 -74 159 -74t159 75q37 59 37 177v404h51v-404z" />
    <glyph glyph-name="Ucircumflex" unicode="&#xdb;" horiz-adv-x="634" 
d="M449 775h-57l-71 122l-72 -122h-57l85 146h87zM564 294q0 -303 -247 -303t-247 303v404h51v-404q0 -118 37 -178q46 -74 159 -74t159 75q37 59 37 177v404h51v-404z" />
    <glyph glyph-name="Ugrave" unicode="&#xd9;" horiz-adv-x="634" 
d="M373 775h-57l-95 146h67zM564 294q0 -303 -247 -303t-247 303v404h51v-404q0 -118 37 -178q46 -74 159 -74t159 75q37 59 37 177v404h51v-404z" />
    <glyph glyph-name="circumflex" unicode="&#x2c6;" horiz-adv-x="498" 
d="M376 533h-58l-72 122l-71 -122h-57l91 146h76z" />
    <glyph glyph-name="tilde" unicode="&#x2dc;" horiz-adv-x="495" 
d="M400 595q-38 -49 -82 -49q-30 0 -77 21.5t-68 21.5t-46 -31l-37 30q38 49 82 49q30 0 77 -21.5t68 -21.5t46 31z" />
    <glyph glyph-name="macron" unicode="&#xaf;" horiz-adv-x="484" 
d="M389 592h-294v48h294v-48z" />
    <glyph glyph-name="macron" unicode="&#x2c9;" horiz-adv-x="484" 
d="M389 592h-294v48h294v-48z" />
    <glyph glyph-name="cedilla" unicode="&#xb8;" horiz-adv-x="481" 
d="M301 -71l-65 -125h-66l82 129l-32 73l40 17z" />
    <glyph glyph-name="Scaron" unicode="&#x160;" horiz-adv-x="595" 
d="M440 921l-95 -146h-87l-95 146h67l72 -123l71 123h67zM550 193q0 -95 -75 -152q-68 -52 -165 -52q-103 0 -172 45q-76 50 -93 148l50 8q26 -150 215 -150q76 0 129 37q60 42 60 116q0 91 -111 131l-206 58q-111 45 -111 149q0 86 69 132q59 40 148 40q174 0 238 -137
l-46 -22q-50 108 -192 108q-68 0 -112 -25q-54 -32 -54 -96q0 -78 111 -114l206 -60q111 -50 111 -164z" />
    <glyph glyph-name="scaron" unicode="&#x161;" horiz-adv-x="447" 
d="M367 679l-95 -146h-87l-95 146h67l71 -123l72 123h67zM407 134q0 -67 -56 -107q-49 -36 -119 -36q-74 0 -123 31q-57 35 -69 104l47 8q18 -95 145 -95q50 0 85 22q42 26 42 73q0 58 -78 83l-145 40q-78 32 -78 105q0 62 51 95q43 28 108 28q125 0 172 -96l-43 -21
q-34 69 -129 69q-111 0 -111 -75q0 -48 78 -71l145 -41q78 -36 78 -116z" />
    <glyph glyph-name="brokenbar" unicode="&#xa6;" horiz-adv-x="311" 
d="M176 394h-51v381h51v-381zM176 -76h-51v381h51v-381z" />
    <glyph glyph-name="Eth" unicode="&#xd0;" horiz-adv-x="659" 
d="M584 349q0 -104 -8 -161q-16 -113 -93 -155q-60 -33 -184 -33h-204v322h-43v51h43v325h203q125 0 185 -33q77 -42 93 -154q8 -58 8 -162zM533 349q0 101 -7 155q-13 91 -77 122q-45 22 -151 22h-152v-275h163v-51h-163v-271h152q106 0 151 21q64 31 77 122q7 54 7 155z
" />
    <glyph glyph-name="eth" unicode="&#xf0;" horiz-adv-x="519" 
d="M459 237q0 -246 -199 -246q-200 0 -200 246q0 247 200 247q47 0 86 -17l-48 109h-120v45h101l-57 129h48l57 -129h88v-45h-68l83 -171q29 -55 29 -168zM411 237q0 93 -29 140q-36 59 -122 59q-87 0 -123 -59q-29 -47 -29 -140q0 -92 29 -139q36 -59 122 -59q87 0 123 59
q29 47 29 139z" />
    <glyph glyph-name="Yacute" unicode="&#xdd;" horiz-adv-x="555" 
d="M363 921l-95 -146h-57l85 146h67zM530 698l-227 -468v-230h-51v232l-227 466h56l197 -403l196 403h56z" />
    <glyph glyph-name="yacute" unicode="&#xfd;" horiz-adv-x="438" 
d="M314 691l-95 -146h-57l85 146h67zM423 478l-224 -600q-37 -99 -130 -98h-19v48h20q59 0 84 67l39 105l-178 478h51l153 -409l152 409h52z" />
    <glyph glyph-name="Thorn" unicode="&#xde;" horiz-adv-x="624" 
d="M574 360q0 -190 -227 -190h-201v-170h-51v698h51v-147h201q227 0 227 -191zM524 361q0 79 -52 113q-41 27 -125 27h-201v-281h201q84 0 125 27q52 34 52 114z" />
    <glyph glyph-name="thorn" unicode="&#xfe;" horiz-adv-x="508" 
d="M463 237q0 -246 -190 -246q-90 0 -135 53v-264h-48v918h48v-272q48 58 135 58q190 0 190 -247zM415 237q0 91 -25 137q-34 62 -117 62q-57 0 -96 -34t-39 -90v-150q0 -55 39.5 -89t95.5 -34q83 0 117 62q25 46 25 136z" />
    <glyph glyph-name="minus" unicode="&#xad;" horiz-adv-x="474" 
d="M434 248h-394v51h394v-51z" />
    <glyph glyph-name="minus" unicode="&#x2212;" horiz-adv-x="474" 
d="M434 248h-394v51h394v-51z" />
    <glyph glyph-name="multiply" unicode="&#xd7;" horiz-adv-x="435" 
d="M375 152l-36 -36l-122 122l-121 -122l-36 36l122 122l-122 121l36 36l121 -122l122 122l36 -36l-122 -121z" />
    <glyph glyph-name="onesuperior" unicode="&#xb9;" horiz-adv-x="256" 
d="M181 274h-41v372l-79 -47l-21 35l119 70h22v-430z" />
    <glyph glyph-name="twosuperior" unicode="&#xb2;" horiz-adv-x="333" 
d="M288 274h-243v37q34 90 103 156q58 54 78.5 81.5t20.5 51.5q0 34 -27 51q-20 13 -47 13q-51 0 -79 -52l-3 -5l-36 19l3 5q39 74 115 74q46 0 79 -26q36 -30 36 -79q0 -34 -23 -67.5t-88 -95.5q-52 -49 -86 -122h197v-41z" />
    <glyph glyph-name="threesuperior" unicode="&#xb3;" horiz-adv-x="330" 
d="M285 395q0 -51 -36 -87t-86 -36q-40 0 -72 23t-44 61l-2 6l39 13l2 -6q18 -56 77 -56q33 0 57 24t24 58t-24 58.5t-57 24.5h-23v41h19q32 0 54.5 21.5t22.5 51.5t-22.5 51.5t-54.5 21.5q-56 0 -73 -51l-2 -5l-39 13l2 6q12 35 43 56.5t69 21.5q49 0 83.5 -33.5
t34.5 -80.5q0 -58 -49 -93q57 -36 57 -104z" />
    <glyph glyph-name="onehalf" unicode="&#xbd;" horiz-adv-x="778" 
d="M728 0h-243v37q34 90 103 156q58 55 78.5 82.5t20.5 51.5q0 34 -27 51q-20 13 -47 13q-51 0 -79 -52l-3 -5l-36 19l3 5q39 74 115 74q46 0 80.5 -28t34.5 -77q0 -34 -23 -68t-88 -96q-52 -49 -86 -122h197v-41zM527 698l-302 -698h-45l302 698h45zM181 274h-41v372
l-79 -47l-21 35l119 70h22v-430z" />
    <glyph glyph-name="onequarter" unicode="&#xbc;" horiz-adv-x="740" 
d="M705 110h-29v-110h-41v110h-178v39l176 282h48l-174 -280h128v170l41 -8v-162h29v-41zM527 698l-302 -698h-45l302 698h45zM181 274h-41v372l-79 -47l-21 35l119 70h22v-430z" />
    <glyph glyph-name="threequarters" unicode="&#xbe;" horiz-adv-x="821" 
d="M786 110h-29v-110h-41v110h-179v39l176 282h49l-175 -280h129v170l41 -8v-162h29v-41zM607 698l-302 -698h-45l303 698h44zM285 395q0 -51 -36 -87t-86 -36q-40 0 -72 23t-44 61l-2 6l39 13l2 -6q18 -56 77 -56q33 0 57 24t24 58t-24 58.5t-57 24.5h-23v41h19
q32 0 54.5 21.5t22.5 51.5t-22.5 51.5t-54.5 21.5q-56 0 -73 -51l-2 -5l-39 13l2 6q12 35 43 56.5t69 21.5q49 0 83.5 -33.5t34.5 -80.5q0 -58 -49 -93q57 -36 57 -104z" />
    <glyph glyph-name="Lslash" unicode="&#x141;" horiz-adv-x="496" 
d="M466 0h-393v270l-38 -17v51l38 16v378h51v-355l168 75v-51l-168 -75v-242h342v-50z" />
    <glyph glyph-name="lslash" unicode="&#x142;" horiz-adv-x="249" 
d="M214 344l-77 -34v-198q0 -64 48 -64v-48q-96 0 -96 112v176l-54 -25v51l54 25v359h48v-338l77 35v-51z" />
    <glyph glyph-name="Zcaron" unicode="&#x17d;" horiz-adv-x="571" 
d="M440 921l-95 -146h-87l-95 146h67l72 -123l71 123h67zM516 0h-471v47l410 601h-374v50h435v-50l-407 -597h407v-51z" />
    <glyph glyph-name="zcaron" unicode="&#x17e;" horiz-adv-x="446" 
d="M367 679l-95 -146h-87l-95 146h67l71 -123l72 123h67zM401 0h-361v52l300 378h-276v48h337v-49l-303 -381h303v-48z" />
    <glyph glyph-name="notequal" unicode="&#x2260;" horiz-adv-x="511" 
d="M456 136h-221l-38 -103l-36 13l33 90h-139v49h156l48 130h-204v49h222l37 103l36 -13l-32 -90h138v-49h-156l-48 -130h204v-49z" />
    <glyph glyph-name="infinity" unicode="&#x221e;" horiz-adv-x="761" 
d="M716 252q0 -56 -39 -91.5t-95 -35.5q-82 0 -201 102q-120 -102 -201 -102q-60 0 -97.5 40t-37.5 101q0 56 39 91.5t96 35.5q81 0 201 -101q119 101 201 101q60 0 97 -40t37 -101zM667 252q0 41 -23 66.5t-63 25.5q-62 0 -163 -85q101 -84 163 -84q37 0 61.5 21t24.5 56z
M343 259q-101 85 -163 85q-37 0 -61.5 -21t-24.5 -57q0 -40 23 -65.5t63 -25.5q62 0 163 84z" />
    <glyph glyph-name="lessequal" unicode="&#x2264;" horiz-adv-x="470" 
d="M415 64l-360 167v54l360 167v-54l-302 -140l302 -140v-54zM415 0h-360v51h360v-51z" />
    <glyph glyph-name="greaterequal" unicode="&#x2265;" horiz-adv-x="470" 
d="M415 231l-360 -167v54l302 140l-302 140v54l360 -167v-54zM415 0h-360v51h360v-51z" />
    <glyph glyph-name="partialdiff" unicode="&#x2202;" horiz-adv-x="487" 
d="M432 205q0 -84 -55.5 -146t-137.5 -62q-85 0 -139.5 59t-54.5 150q0 86 48 145q53 64 142 64q83 0 141 -65q-10 101 -38 179q-45 121 -118 121q-57 0 -108 -64l-40 31q67 84 148 84q126 0 179 -201q33 -123 33 -295zM383 206q0 62 -43 110.5t-105 48.5q-66 0 -105 -49
q-36 -45 -36 -110q0 -69 40.5 -114.5t104.5 -45.5q62 0 103 48t41 112z" />
    <glyph glyph-name="summation" unicode="&#x2211;" horiz-adv-x="506" 
d="M451 -220h-396v48l260 411l-260 411v48h396v-49h-337l259 -410l-259 -410h337v-49z" />
    <glyph glyph-name="product" unicode="&#x220f;" horiz-adv-x="589" 
d="M514 -197h-48v901h-343v-901h-48v949h439v-949z" />
    <glyph glyph-name="pi" unicode="&#x3c0;" horiz-adv-x="530" 
d="M485 0h-18q-96 0 -96 112v318h-258v-430h-48v478h354v-366q0 -41 15 -53q12 -11 51 -11v-48z" />
    <glyph glyph-name="integral" unicode="&#x222b;" horiz-adv-x="312" 
d="M277 650q-62 0 -72 -4q-25 -10 -25 -59v-671q0 -112 -96 -112h-49v48q61 0 71 4q26 11 26 60v671q0 111 96 111h49v-48z" />
    <glyph glyph-name="Omega" unicode="&#x3a9;" horiz-adv-x="596" 
d="M551 348q0 -209 -111 -302h90l9 -46h-174v43q78 57 110 133q27 66 27 172q0 123 -40 200q-52 99 -164 99t-164 -99q-40 -77 -40 -200q0 -106 27 -172q32 -76 110 -133v-43h-173l8 46h90q-111 93 -111 302q0 145 53 236q66 113 200 113t200 -113q53 -91 53 -236z" />
    <glyph glyph-name="Omega" unicode="&#x2126;" horiz-adv-x="596" 
d="M551 348q0 -209 -111 -302h90l9 -46h-174v43q78 57 110 133q27 66 27 172q0 123 -40 200q-52 99 -164 99t-164 -99q-40 -77 -40 -200q0 -106 27 -172q32 -76 110 -133v-43h-173l8 46h90q-111 93 -111 302q0 145 53 236q66 113 200 113t200 -113q53 -91 53 -236z" />
    <glyph glyph-name="radical" unicode="&#x221a;" horiz-adv-x="603" 
d="M568 644h-96l-175 -644h-52l-190 478h53l159 -400l167 615h134v-49z" />
    <glyph glyph-name="approxequal" unicode="&#x2248;" horiz-adv-x="498" 
d="M453 343q-50 -46 -104 -46q-36 0 -103 22t-102 22q-34 0 -66 -30l-33 31q49 46 103 46q36 0 103.5 -22t102.5 -22q33 0 66 30zM453 202q-50 -46 -104 -46q-36 0 -103 22t-102 22q-34 0 -66 -30l-33 32q49 46 103 46q36 0 103.5 -22t102.5 -22q33 0 66 30z" />
    <glyph glyph-name="approxequal" unicode="&#x22f2;" horiz-adv-x="498" 
d="M453 343q-50 -46 -104 -46q-36 0 -103 22t-102 22q-34 0 -66 -30l-33 31q49 46 103 46q36 0 103.5 -22t102.5 -22q33 0 66 30zM453 202q-50 -46 -104 -46q-36 0 -103 22t-102 22q-34 0 -66 -30l-33 32q49 46 103 46q36 0 103.5 -22t102.5 -22q33 0 66 30z" />
    <glyph glyph-name="Delta" unicode="&#x394;" horiz-adv-x="569" 
d="M554 0h-539l270 695zM485 46l-200 516l-201 -516h401z" />
    <glyph glyph-name="Delta" unicode="&#x2206;" horiz-adv-x="569" 
d="M554 0h-539l270 695zM485 46l-200 516l-201 -516h401z" />
    <glyph glyph-name="lozenge" unicode="&#x25ca;" horiz-adv-x="528" 
d="M473 345l-209 -341l-209 341l209 340zM422 345l-158 257l-158 -257l158 -258z" />
    <glyph glyph-name="fraction" unicode="&#x2044;" horiz-adv-x="137" 
d="M242 698l-302 -698h-45l302 698h45z" />
    <glyph glyph-name="fi" unicode="&#xf001;" horiz-adv-x="461" 
d="M396 662q0 -15 -10.5 -25.5t-25.5 -10.5t-25.5 10.5t-10.5 25.5t10.5 25.5t25.5 10.5t25.5 -10.5t10.5 -25.5zM384 0h-48v430h-195v-430h-48v430h-48v48h48v21q0 86 29 131q44 68 139 68v-48q-69 0 -98 -46q-22 -34 -22 -105v-21h243v-478z" />
    <glyph glyph-name="fl" unicode="&#xf002;" 
d="M434 0q-96 0 -96 112v538h-78q-68 0 -98 -46q-22 -33 -22 -126h105v-48h-105v-430h-48v430h-47v48h47q0 106 29 152q44 68 139 68h126v-586q0 -64 47 -64z" />
    <glyph glyph-name="dotlessi" unicode="&#x131;" horiz-adv-x="212" 
d="M130 0h-48v478h48v-478z" />
    <glyph glyph-name="breve" unicode="&#x2d8;" horiz-adv-x="487" 
d="M412 698q-20 -54 -66 -88.5t-103 -34.5q-56 0 -102 34.5t-66 88.5h49q39 -75 119 -75t119 75h50z" />
    <glyph glyph-name="dotaccent" unicode="&#x2d9;" horiz-adv-x="497" 
d="M292 585q0 -18 -13 -30.5t-31 -12.5t-30.5 12.5t-12.5 30.5t12.5 31t30.5 13t31 -13t13 -31z" />
    <glyph glyph-name="ring" unicode="&#x2da;" horiz-adv-x="483" 
d="M358 649q0 -48 -34 -82.5t-82 -34.5q-49 0 -83 34.5t-34 82.5t34 82t83 34q48 0 82 -34t34 -82zM310 649q0 28 -20 48t-48 20q-29 0 -49 -20t-20 -48t20 -48t49 -20q28 0 48 20t20 48z" />
    <glyph glyph-name="hungarumlaut" unicode="&#x2dd;" horiz-adv-x="435" 
d="M390 716l-95 -146h-57l85 146h67zM267 716l-95 -146h-57l85 146h67z" />
    <glyph glyph-name="ogonek" unicode="&#x2db;" horiz-adv-x="509" 
d="M344 -196h-66l-98 196h52z" />
    <glyph glyph-name="caron" unicode="&#x2c7;" horiz-adv-x="467" 
d="M372 679l-95 -146h-87l-95 146h67l71 -123l72 123h67z" />
    </font>
</defs>
</svg>
